<svg width="24" height="24" viewBox="0 0 24 24" fill="none" xmlns="http://www.w3.org/2000/svg">
<path d="M21.2836 8.27576L15.3328 7.41092L12.6727 2.01795C12.6 1.87029 12.4805 1.75076 12.3328 1.67811C11.9625 1.49529 11.5125 1.64764 11.3274 2.01795L8.6672 7.41092L2.71642 8.27576C2.55236 8.2992 2.40236 8.37654 2.28751 8.49373C2.14867 8.63643 2.07217 8.82842 2.0748 9.0275C2.07744 9.22658 2.159 9.41647 2.30158 9.55545L6.60704 13.7531L5.58986 19.6805C5.566 19.8183 5.58126 19.9601 5.6339 20.0898C5.68654 20.2194 5.77445 20.3318 5.88767 20.414C6.00089 20.4962 6.13489 20.5451 6.27447 20.555C6.41404 20.565 6.55361 20.5356 6.67736 20.4703L12 17.6719L17.3227 20.4703C17.468 20.5476 17.6367 20.5734 17.7985 20.5453C18.2063 20.475 18.4805 20.0883 18.4102 19.6805L17.393 13.7531L21.6985 9.55545C21.8156 9.44061 21.893 9.29061 21.9164 9.12654C21.9797 8.71639 21.6938 8.3367 21.2836 8.27576ZM15.5813 13.1625L16.4274 18.0914L12 15.7664L7.57267 18.0937L8.41876 13.1648L4.83751 9.67264L9.78751 8.95311L12 4.46951L14.2125 8.95311L19.1625 9.67264L15.5813 13.1625Z" fill="black"/>
</svg>
