<svg width="24" height="24" viewBox="0 0 24 24" fill="none" xmlns="http://www.w3.org/2000/svg">
<path fill-rule="evenodd" clip-rule="evenodd" d="M12.7593 2.34921L12 1.46341L11.2407 2.34921L5.24074 9.34921L4.40722 10.3216L5.55278 10.8944L11.5528 13.8944L12 14.118L12.4472 13.8944L18.4472 10.8944L19.5928 10.3216L18.7593 9.34921L12.7593 2.34921ZM12 11.882L7.59277 9.67835L12 4.53659L16.4072 9.67835L12 11.882ZM5.44721 12.1056L4.24742 13.6585L11.2474 21.6585L12 22.5186L12.7526 21.6585L19.7526 13.6585L18.5528 12.1056L12 15.382L5.44721 12.1056ZM12 19.4814L9.10142 16.1687L11.5528 17.3944L12 17.618L12.4472 17.3944L14.8986 16.1687L12 19.4814Z" fill="black"/>
</svg>
