<svg width="24" height="24" viewBox="0 0 24 24" fill="none" xmlns="http://www.w3.org/2000/svg">
<path fill-rule="evenodd" clip-rule="evenodd" d="M18 23C21.3137 23 24 20.3137 24 17C24 13.6863 21.3137 11 18 11C14.6863 11 12 13.6863 12 17C12 20.3137 14.6863 23 18 23ZM21.5303 15.5303L20.4697 14.4697L17 17.9393L15.5303 16.4697L14.4697 17.5303L16.4697 19.5303L17 20.0607L17.5303 19.5303L21.5303 15.5303Z" fill="black"/>
<path fill-rule="evenodd" clip-rule="evenodd" d="M10.1318 15.546L6.29289 11.7071L7.70711 10.2929L10.8406 13.4264C10.5106 14.0861 10.2692 14.7979 10.1318 15.546ZM10.5815 20H4V22H11.7546C11.2724 21.3984 10.8753 20.7257 10.5815 20ZM13 10.7546V2H11L11 13.124C11.5075 12.2094 12.1891 11.4047 13 10.7546Z" fill="black"/>
</svg>
