<svg width="24" height="24" viewBox="0 0 24 24" fill="none" xmlns="http://www.w3.org/2000/svg">
<path d="M11.9873 20.5731L11.9871 20.5729C11.9872 20.573 11.9873 20.573 11.9873 20.5731ZM11.9873 20.5731L11.9875 20.5733C11.9875 20.5733 11.9874 20.5732 11.9873 20.5731ZM11.2613 5.74404L12 6.55358L12.7387 5.74404C13.7116 4.67779 15.0733 4.04918 16.5155 4.00003C18.9936 4.00837 21 6.01988 21 8.5C21 10.0985 20.007 11.9289 18.5599 13.7552C17.3759 15.2497 16.0061 16.6006 14.9144 17.6773C14.6947 17.8939 14.4863 18.0995 14.2929 18.2929L12.0858 20.5H11.9142L9.70711 18.2929C9.51371 18.0995 9.30528 17.8939 9.08558 17.6773C7.99389 16.6006 6.62414 15.2497 5.44005 13.7552C3.99304 11.9289 3 10.0985 3 8.5C3 6.01988 5.00636 4.00837 7.48452 4.00003C8.92668 4.04918 10.2884 4.67779 11.2613 5.74404ZM12.0125 20.5733C12.0126 20.5732 12.0127 20.573 12.0129 20.5729L12.0125 20.5733Z" stroke="black" stroke-width="2"/>
</svg>
