<svg width="24" height="24" viewBox="0 0 24 24" fill="none" xmlns="http://www.w3.org/2000/svg">
<path fill-rule="evenodd" clip-rule="evenodd" d="M20 5C20 6.65685 18.6569 8 17 8C16.2606 8 15.5836 7.73249 15.0607 7.28897L7.94751 11.4383C7.98197 11.6203 8 11.808 8 12C8 12.192 7.98197 12.3797 7.94751 12.5617L15.0607 16.711C15.5836 16.2675 16.2606 16 17 16C18.6569 16 20 17.3431 20 19C20 20.6569 18.6569 22 17 22C15.3431 22 14 20.6569 14 19C14 18.808 14.018 18.6203 14.0525 18.4383L6.93932 14.289C6.41636 14.7325 5.73942 15 5 15C3.34315 15 2 13.6569 2 12C2 10.3431 3.34315 9 5 9C5.73942 9 6.41636 9.26751 6.93932 9.71103L14.0525 5.56168C14.018 5.37973 14 5.19197 14 5C14 3.34315 15.3431 2 17 2C18.6569 2 20 3.34315 20 5Z" fill="black"/>
</svg>
