<svg width="24" height="24" viewBox="0 0 24 24" fill="none" xmlns="http://www.w3.org/2000/svg">
<path fill-rule="evenodd" clip-rule="evenodd" d="M16.0314 5.76875C14.7787 5.27268 13.4131 5 11.9835 5C7.47126 5 3.59576 7.71673 1.89925 11.5996L1.72432 12L1.89925 12.4004C2.62751 14.0672 3.75731 15.5191 5.16664 16.6335L6.59254 15.2076C5.46929 14.3662 4.54904 13.2682 3.91878 12C5.39239 9.03493 8.45133 7 11.9835 7C12.8409 7 13.6705 7.11991 14.4562 7.34392L16.0314 5.76875ZM17.9021 6.72647L16.4461 8.18244C17.9928 9.06715 19.252 10.3978 20.0483 12C18.5746 14.9651 15.5157 17 11.9835 17C10.7021 17 9.483 16.7322 8.37925 16.2493L6.88109 17.7475C8.40588 18.5473 10.1416 19 11.9835 19C16.4958 19 20.3713 16.2833 22.0678 12.4004L22.2427 12L22.0678 11.5996C21.1906 9.59208 19.731 7.89626 17.9021 6.72647ZM10.2092 14.4193C10.7062 14.7844 11.3197 15 11.9835 15C13.6404 15 14.9835 13.6569 14.9835 12C14.9835 11.3361 14.7679 10.7226 14.4028 10.2257L10.2092 14.4193ZM12.7113 9.08888C12.4783 9.03082 12.2345 9 11.9835 9C10.3267 9 8.98352 10.3431 8.98352 12C8.98352 12.251 9.01434 12.4947 9.07239 12.7277L12.7113 9.08888Z" fill="black"/>
<path d="M21 5L5 21" stroke="black" stroke-width="2"/>
</svg>
