<svg width="24" height="24" viewBox="0 0 24 24" fill="none" xmlns="http://www.w3.org/2000/svg">
<path d="M2.83208 12L1.91572 11.5996L1.74079 12L1.91572 12.4004L2.83208 12ZM21.1679 12L22.0843 12.4004L22.2592 12L22.0843 11.5996L21.1679 12ZM3.74843 12.4004C5.13815 9.21965 8.31097 7 12 7V5C7.48773 5 3.61224 7.71673 1.91572 11.5996L3.74843 12.4004ZM12 7C15.689 7 18.8618 9.21966 20.2515 12.4004L22.0843 11.5996C20.3877 7.71674 16.5122 5 12 5V7ZM20.2515 11.5996C18.8618 14.7804 15.689 17 12 17V19C16.5122 19 20.3877 16.2833 22.0843 12.4004L20.2515 11.5996ZM12 17C8.31097 17 5.13815 14.7803 3.74843 11.5996L1.91572 12.4004C3.61223 16.2833 7.48773 19 12 19V17Z" fill="#000007"/>
<circle cx="12" cy="12" r="3" fill="#000007"/>
</svg>
