<svg width="808" height="542" viewBox="0 0 808 542" fill="none" xmlns="http://www.w3.org/2000/svg">
<path d="M358.813 103.948C334.84 82.9679 307.932 30.5184 302.061 15.8325C284.123 10.0631 243.157 -1.16115 222.805 0.0976366C197.365 1.67112 142.081 15.8325 80.4371 24.2244C18.7933 32.6164 -95.6884 18.3985 -95.6885 144.334C-95.6885 171.5 -89.8176 163.216 -59.9742 182.622C-30.1307 202.028 9.0082 216.19 44.7225 243.464C80.4368 270.737 50.5934 339.971 34.4485 450.115C18.3037 560.259 50.5934 484.207 101.474 501.516C152.355 518.824 188.069 516.201 233.079 511.481C278.089 506.76 268.793 496.795 312.335 484.207C355.877 471.619 444.455 577.827 601.5 528C758.545 478.173 845.51 306.624 791.5 275C715.5 230.5 511.015 271.161 443.5 257C375.985 242.839 386.574 215.965 344.5 206C302.426 196.035 382.785 124.928 358.813 103.948Z" fill="#1A4990"/>
</svg>
