<svg width="832" height="404" viewBox="0 0 832 404" fill="none" xmlns="http://www.w3.org/2000/svg">
<path d="M992.693 245.82C992.383 246.469 992.034 247.221 991.647 248.069C987.336 244.815 976.322 233.78 952.447 206.771C900.488 147.991 933.826 175.12 899.286 151.691C864.747 128.261 866.249 120.04 820.296 106.475C774.344 92.9109 772.842 88.8004 702.562 53.0393C632.282 17.2783 671.026 33.7201 646.398 13.9898C621.77 -5.74053 603.449 -15.6056 564.705 -29.1702C525.961 -42.7347 481.21 -31.2254 405.223 -45.201C329.236 -59.1767 282.984 -37.3911 132.212 -45.201C-18.5602 -53.0109 74.8463 -31.2254 22.8871 13.9898C-29.0721 59.205 25.8905 37.4195 40.3069 88.8004C54.7234 140.181 201.29 151.691 297.4 175.12C393.51 198.55 320.526 184.985 363.475 206.771C406.424 228.557 409.428 245.82 439.762 277.471C470.097 309.122 514.247 318.576 603.449 358.036C692.651 397.497 709.77 399.141 752.719 403.252C795.668 407.362 800.173 393.387 820.296 389.276C840.419 385.166 899.286 355.981 933.826 330.496C966.487 306.397 984.914 262.817 991.647 248.069C994.841 250.481 994.355 248.62 992.693 245.82Z" fill="#3565E0"/>
</svg>
