<svg width="904" height="542" viewBox="0 0 904 542" fill="none" xmlns="http://www.w3.org/2000/svg">
<path d="M449.184 103.948C473.157 82.9679 500.065 30.5184 505.936 15.8325C523.875 10.0631 564.84 -1.16115 585.192 0.0976366C610.632 1.67112 665.916 15.8325 727.56 24.2244C789.204 32.6164 903.685 18.3985 903.686 144.334C903.686 171.5 897.815 163.216 867.971 182.622C838.128 202.028 798.989 216.19 763.275 243.464C727.56 270.737 757.404 339.971 773.549 450.115C789.693 560.259 757.404 484.207 706.523 501.516C655.642 518.824 619.928 516.201 574.918 511.481C529.909 506.76 539.204 496.795 495.662 484.207C452.12 471.619 363.542 577.827 206.497 528C49.452 478.173 -37.5125 306.624 16.4971 275C92.4971 230.5 296.982 271.161 364.497 257C432.012 242.839 421.423 215.965 463.497 206C505.571 196.035 425.212 124.928 449.184 103.948Z" fill="#1A4990"/>
</svg>
