<svg width="1003" height="487" viewBox="0 0 1003 487" fill="none" xmlns="http://www.w3.org/2000/svg">
<path d="M-10.5623 69.4499C-40.8385 56.849 -46.3611 57.0327 -90.464 39.4369C-141.15 28.4827 -247.632 5.73549 -268.074 2.38005C-293.628 -1.81425 -286.571 7.24785 -326.387 0.71253C-366.202 -5.82279 -337.069 47.2002 -340.937 89.3553C-344.805 131.51 -339.786 119.525 -329.585 180.069C-319.384 240.614 -325.176 223.855 -314.555 285.559C-303.934 347.263 -285.325 304.53 -209.928 324.809C-134.531 345.089 -165.81 338.592 -17.8382 362.88C130.133 387.168 138.889 385.88 272.162 410.48C405.435 435.081 570.918 456.793 868.028 479.668C1165.14 502.544 885.209 464.228 824.458 425.366C763.706 386.504 784.589 400.561 691.359 347.647C598.129 294.732 651.099 325.231 596.315 302.066C541.531 278.901 515.517 262.639 424.978 226.792C334.439 190.945 339.526 193.415 242.985 160.671C146.444 127.927 176.736 136.714 108.109 112.368C39.4832 88.0211 19.7138 82.0507 -10.5623 69.4499Z" fill="#4A78EC"/>
</svg>
