<svg width="1440" height="970" fill="none" xmlns="http://www.w3.org/2000/svg"><path d="M1564.56 479.45c30.28-12.601 35.8-12.417 79.9-30.013 50.69-10.954 157.17-33.702 177.61-37.057 25.55-4.194 18.5 4.868 58.31-1.667 39.82-6.536 10.69 46.487 14.55 88.642 3.87 42.155-1.15 30.169-11.35 90.714s-4.41 43.786-15.03 105.49c-10.62 61.704-29.23 18.971-104.62 39.25-75.4 20.28-44.12 13.783-192.09 38.071-147.98 24.288-156.73 23-290 47.6-133.28 24.601-298.761 46.313-595.871 69.188-297.11 22.876-17.181-15.44 43.57-54.302 60.752-38.862 39.869-24.805 133.099-77.719 93.23-52.915 40.26-22.416 95.044-45.581 54.788-23.165 80.798-39.427 171.338-75.274 90.54-35.847 85.45-33.377 181.99-66.121 96.54-32.744 66.25-23.957 134.88-48.303 68.62-24.347 88.39-30.317 118.67-42.918z" fill="#06BAED"/><path d="M246.098 697.222s-302.47 93.266-265.08 130.655C-10 836.858 177.981 868.631 275.5 852c97.519-16.63 226.332 28.963 464 19.5 250.444-9.972 582.35-194.325 518-186-64.35 8.325-380.724-109.234-409.996-169.17-48.684-99.685-274.911 71.571-274.911 71.571l-171.076 52.774-155.419 56.547z" fill="#16407E"/><path d="M404.426 65.868c17.666-15.611 86.686-72.717 94.491-78.88-28.895-16.296-93.752-47.739-122.018-43.137-35.331 5.751-151.186-7.806-251.43 0C25.226-48.343-.246-54.095-43.383-30.678c-43.138 23.418-6.163 41.495 0 170.907 6.162 129.413 19.72 39.44 76.415 66.966 56.695 27.526 72.717-2.054 143.381-27.526 69.261-24.966 86.028-32.96 153.205-64.99l4.144-1.976c70.664-33.688 52.998-31.223 70.664-46.835z" fill="#B6A3FF"/><path d="M967.813 255.948c-23.973-20.98-50.881-73.43-56.752-88.115-17.938-5.77-58.904-16.994-79.256-15.735-25.44 1.573-80.724 15.735-142.368 24.126-61.644 8.392-176.125-5.826-176.125 120.11 0 27.166 5.87 18.882 35.714 38.288 29.843 19.406 68.982 33.568 104.696 60.842 35.715 27.273 5.871 96.507-10.273 206.651-16.145 110.144 16.144 34.092 67.025 51.401 50.881 17.308 86.595 14.685 131.605 9.965 45.01-4.721 35.714-14.686 79.256-27.274 43.542-12.588 132.115 93.62 289.165 43.793 157.05-49.827 244.01-221.376 190-253-76-44.5-280.49-3.839-348-18-67.515-14.161-56.926-41.035-99-51-42.074-9.965 38.285-81.072 14.313-102.052z" fill="#1A4990"/><path d="M-46.696 222.82c.31.649.659 1.401 1.046 2.249 4.31-3.254 15.325-14.289 39.2-41.298 51.96-58.78 18.621-31.651 53.16-55.08 34.54-23.43 33.038-31.65 78.991-45.216C171.653 69.911 173.155 65.8 243.435 30.04c70.28-35.76 31.536-19.319 56.164-39.05 24.628-19.73 42.949-29.595 81.693-43.16 38.744-13.564 83.495-2.054 159.482-16.03s122.239 7.81 273.011 0c150.772-7.81 57.366 13.976 109.325 59.19 51.959 45.216-3.003 23.43-17.42 74.811-14.416 51.381-160.983 62.891-257.093 86.32-96.11 23.43-23.126 9.865-66.075 31.651s-45.953 39.049-76.287 70.7c-30.335 31.651-74.485 41.105-163.687 80.565-89.202 39.461-106.321 41.105-149.27 45.216-42.949 4.11-47.454-9.865-67.577-13.976-20.123-4.11-78.99-33.295-113.53-58.78-32.661-24.099-51.088-67.679-57.82-82.427-3.195 2.412-2.709.551-1.047-2.249z" fill="#403F87"/></svg>