<svg width="385" height="242" viewBox="0 0 385 242" fill="none" xmlns="http://www.w3.org/2000/svg">
<path d="M94.5714 88.8684C76.9055 73.2567 7.88544 16.1508 0.0795898 9.9883C28.975 -6.30812 93.8322 -37.7506 122.098 -33.1493C157.429 -27.3976 273.284 -40.9551 373.528 -33.1493C473.771 -25.3434 499.243 -31.0951 542.38 -7.67757C585.518 15.74 548.543 33.8167 542.38 163.229C536.218 292.642 522.66 202.669 465.965 230.195C409.27 257.721 393.248 228.141 322.584 202.669C253.323 177.703 236.556 169.709 169.379 137.679L165.235 135.703C94.5714 102.015 112.237 104.48 94.5714 88.8684Z" fill="#5B85EF"/>
</svg>
