<svg width="1440" height="1455" viewBox="0 0 1440 1455" fill="none" xmlns="http://www.w3.org/2000/svg">
<g opacity="0.6" filter="url(#filter0_f)">
<path d="M-10.5623 417.45C-40.8385 404.849 -46.3611 405.033 -90.464 387.437C-141.15 376.483 -247.632 353.735 -268.074 350.38C-293.628 346.186 -286.571 355.248 -326.387 348.713C-366.202 342.177 -337.069 395.2 -340.937 437.355C-344.805 479.51 -339.786 467.525 -329.585 528.069C-319.384 588.614 -325.176 571.855 -314.555 633.559C-303.934 695.263 -285.325 652.53 -209.928 672.809C-134.531 693.089 -165.81 686.592 -17.8382 710.88C130.133 735.168 138.889 733.88 272.162 758.48C405.435 783.081 570.918 804.793 868.028 827.668C1165.14 850.544 885.209 812.228 824.458 773.366C763.706 734.504 784.589 748.561 691.359 695.647C598.129 642.732 651.099 673.231 596.315 650.066C541.531 626.901 515.517 610.639 424.978 574.792C334.439 538.945 339.526 541.415 242.985 508.671C146.444 475.927 176.736 484.714 108.109 460.368C39.4832 436.021 19.7138 430.051 -10.5623 417.45Z" fill="#4A78EC"/>
<path d="M1307.9 635.222C1307.9 635.222 1610.37 728.488 1572.98 765.877C1564 774.858 1376.02 806.631 1278.5 790C1180.98 773.37 1052.16 818.963 814.497 809.5C564.053 799.528 232.144 615.175 296.497 623.5C360.849 631.825 677.221 514.266 706.492 454.33C755.177 354.645 981.404 525.901 981.404 525.901L1152.48 578.675L1307.9 635.222Z" fill="#16407E"/>
<path d="M1149.57 88.8684C1131.91 73.2567 1062.89 16.1508 1055.08 9.9883C1083.98 -6.30812 1148.83 -37.7506 1177.1 -33.1493C1212.43 -27.3976 1328.28 -40.9551 1428.53 -33.1493C1528.77 -25.3434 1554.24 -31.0951 1597.38 -7.67757C1640.52 15.74 1603.54 33.8167 1597.38 163.229C1591.22 292.642 1577.66 202.669 1520.97 230.195C1464.27 257.721 1448.25 228.141 1377.58 202.669C1308.32 177.703 1291.56 169.709 1224.38 137.679L1220.23 135.703C1149.57 102.015 1167.24 104.48 1149.57 88.8684Z" fill="#5B85EF"/>
<path d="M586.184 275.948C610.157 254.968 637.065 202.518 642.936 187.833C660.875 182.063 701.84 170.839 722.192 172.098C747.632 173.671 802.916 187.833 864.56 196.224C926.204 204.616 1040.69 190.398 1040.69 316.334C1040.69 343.5 1034.81 335.216 1004.97 354.622C975.128 374.028 935.989 388.19 900.275 415.464C864.56 442.737 894.404 511.971 910.549 622.115C926.693 732.259 894.404 656.207 843.523 673.516C792.642 690.824 756.928 688.201 711.918 683.481C666.909 678.76 676.204 668.795 632.662 656.207C589.12 643.619 500.542 749.827 343.497 700C186.452 650.173 99.4875 478.624 153.497 447C229.497 402.5 433.982 443.161 501.497 429C569.012 414.839 558.423 387.965 600.497 378C642.571 368.035 562.212 296.928 586.184 275.948Z" fill="#1A4990"/>
<path d="M1600.69 245.82C1600.38 246.469 1600.03 247.221 1599.65 248.069C1595.34 244.815 1584.32 233.78 1560.45 206.771C1508.49 147.991 1541.83 175.12 1507.29 151.691C1472.75 128.261 1474.25 120.04 1428.3 106.475C1382.34 92.9109 1380.84 88.8004 1310.56 53.0393C1240.28 17.2783 1279.03 33.7201 1254.4 13.9898C1229.77 -5.74053 1211.45 -15.6056 1172.7 -29.1702C1133.96 -42.7347 1089.21 -31.2254 1013.22 -45.201C937.236 -59.1767 890.984 -37.3911 740.212 -45.201C589.44 -53.0109 682.846 -31.2254 630.887 13.9898C578.928 59.205 633.891 37.4195 648.307 88.8004C662.723 140.181 809.29 151.691 905.4 175.12C1001.51 198.55 928.526 184.985 971.475 206.771C1014.42 228.557 1017.43 245.82 1047.76 277.471C1078.1 309.122 1122.25 318.576 1211.45 358.036C1300.65 397.497 1317.77 399.141 1360.72 403.252C1403.67 407.362 1408.17 393.387 1428.3 389.276C1448.42 385.166 1507.29 355.981 1541.83 330.496C1574.49 306.397 1592.91 262.817 1599.65 248.069C1602.84 250.481 1602.35 248.62 1600.69 245.82Z" fill="#3565E0"/>
</g>
<defs>
<filter id="filter0_f" x="-942.2" y="-597.2" width="3107.4" height="2052.15" filterUnits="userSpaceOnUse" color-interpolation-filters="sRGB">
<feFlood flood-opacity="0" result="BackgroundImageFix"/>
<feBlend mode="normal" in="SourceGraphic" in2="BackgroundImageFix" result="shape"/>
<feGaussianBlur stdDeviation="273.6" result="effect1_foregroundBlur"/>
</filter>
</defs>
</svg>
