<svg width="1920" height="960" viewBox="0 0 1920 960" fill="none" xmlns="http://www.w3.org/2000/svg">
<g filter="url(#filter0_f)">
<g filter="url(#filter1_f)">
<path d="M2026.36 621.164C2074.87 600.974 2083.72 601.268 2154.38 573.075C2235.6 555.524 2406.21 519.077 2438.96 513.701C2479.9 506.981 2468.6 521.5 2532.39 511.029C2596.19 500.558 2549.51 585.514 2555.7 653.057C2561.9 720.6 2553.86 701.396 2537.52 798.404C2521.17 895.412 2530.45 868.56 2513.44 967.425C2496.42 1066.29 2466.6 997.821 2345.8 1030.31C2224.99 1062.81 2275.11 1052.4 2038.02 1091.31C1800.93 1130.23 1786.9 1128.16 1573.37 1167.58C1359.83 1207 1094.68 1241.78 618.639 1278.44C142.594 1315.09 591.111 1253.7 688.45 1191.43C785.789 1129.16 752.329 1151.69 901.707 1066.91C1051.09 982.123 966.214 1030.99 1053.99 993.873C1141.77 956.757 1183.45 930.702 1328.52 873.265C1473.58 815.829 1465.43 819.787 1620.12 767.323C1774.8 714.858 1726.26 728.938 1836.22 689.929C1946.18 650.92 1977.85 641.353 2026.36 621.164Z" fill="#06BAED"/>
</g>
<g filter="url(#filter2_f)">
<path d="M-86.1437 970.09C-86.1437 970.09 -570.778 1119.53 -510.869 1179.43C-496.478 1193.82 -195.286 1244.73 -39.0356 1218.08C117.214 1191.44 323.606 1264.49 704.41 1249.33C1105.68 1233.35 1637.49 937.969 1534.38 951.308C1431.27 964.646 924.361 776.287 877.46 680.255C799.455 520.534 436.982 794.93 436.982 794.93L162.877 879.488L-86.1437 970.09Z" fill="#16407E"/>
</g>
<g filter="url(#filter3_f)">
<path d="M167.536 -41.4978C195.841 -66.5117 306.428 -158.01 318.935 -167.884C272.638 -193.995 168.72 -244.373 123.432 -237.001C66.8215 -227.785 -118.808 -249.508 -279.423 -237.001C-440.038 -224.494 -480.85 -233.71 -549.967 -196.189C-619.084 -158.668 -559.841 -129.705 -549.967 77.6471C-540.093 284.999 -518.371 140.84 -427.531 184.943C-336.691 229.047 -311.019 181.652 -197.798 140.84C-86.825 100.838 -59.9592 88.0287 47.6752 36.7095L54.3151 33.5437C167.536 -20.4335 139.231 -16.484 167.536 -41.4978Z" fill="#B6A3FF"/>
</g>
<g filter="url(#filter4_f)">
<path d="M1070.22 258.25C1031.81 224.635 988.7 140.598 979.293 117.068C950.551 107.823 884.914 89.8394 852.305 91.8563C811.543 94.3775 722.965 117.068 624.196 130.514C525.427 143.96 341.998 121.179 341.998 322.959C341.998 366.486 351.405 353.213 399.221 384.306C447.038 415.4 509.749 438.09 566.972 481.79C624.195 525.489 576.379 636.419 550.51 812.897C524.642 989.376 576.379 867.522 657.902 895.254C739.426 922.986 796.649 918.784 868.766 911.221C940.883 903.658 925.989 887.691 995.755 867.522C1065.52 847.353 1207.44 1017.52 1459.07 937.689C1710.7 857.853 1850.03 582.989 1763.5 532.319C1641.73 461.019 1314.09 526.169 1205.91 503.479C1097.74 480.788 1114.7 437.731 1047.29 421.764C979.877 405.797 1108.63 291.865 1070.22 258.25Z" fill="#1A4990"/>
</g>
<g filter="url(#filter5_f)">
<path d="M-555.274 209.979C-554.777 211.017 -554.219 212.223 -553.599 213.582C-546.692 208.368 -529.045 190.688 -490.79 147.412C-407.538 53.2317 -460.954 96.6994 -405.614 59.1592C-350.273 21.619 -352.679 8.44693 -279.052 -13.2869C-205.424 -35.0208 -203.018 -41.6068 -90.4117 -98.9051C22.1947 -156.203 -39.8832 -129.859 -0.422852 -161.472C39.0375 -193.085 68.3922 -208.891 130.47 -230.625C192.548 -252.359 264.25 -233.918 386 -256.311C507.75 -278.703 581.859 -243.797 823.433 -256.311C1065.01 -268.824 915.347 -233.918 998.599 -161.472C1081.85 -89.0261 993.786 -123.932 970.688 -41.6068C947.589 40.7183 712.751 59.1592 558.76 96.6994C404.768 134.24 521.705 112.506 452.89 147.412C384.075 182.318 379.263 209.979 330.659 260.691C282.056 311.404 211.316 326.551 68.3922 389.777C-74.5314 453.003 -101.961 455.637 -170.776 462.223C-239.591 468.809 -246.81 446.417 -279.052 439.831C-311.294 433.245 -405.614 386.484 -460.954 345.651C-513.286 307.038 -542.811 237.211 -553.599 213.582C-558.717 217.446 -557.937 214.464 -555.274 209.979Z" fill="#403F87"/>
</g>
</g>
<defs>
<filter id="filter0_f" x="-805.468" y="-486.468" width="3670.26" height="2115.69" filterUnits="userSpaceOnUse" color-interpolation-filters="sRGB">
<feFlood flood-opacity="0" result="BackgroundImageFix"/>
<feBlend mode="normal" in="SourceGraphic" in2="BackgroundImageFix" result="shape"/>
<feGaussianBlur stdDeviation="111.234" result="effect1_foregroundBlur"/>
</filter>
<filter id="filter1_f" x="33.4879" y="193.865" width="2908.84" height="1468.16" filterUnits="userSpaceOnUse" color-interpolation-filters="sRGB">
<feFlood flood-opacity="0" result="BackgroundImageFix"/>
<feBlend mode="normal" in="SourceGraphic" in2="BackgroundImageFix" result="shape"/>
<feGaussianBlur stdDeviation="150" result="effect1_foregroundBlur"/>
</filter>
<filter id="filter2_f" x="-818.829" y="199.463" width="2691.74" height="1507.29" filterUnits="userSpaceOnUse" color-interpolation-filters="sRGB">
<feFlood flood-opacity="0" result="BackgroundImageFix"/>
<feBlend mode="normal" in="SourceGraphic" in2="BackgroundImageFix" result="shape"/>
<feGaussianBlur stdDeviation="150" result="effect1_foregroundBlur"/>
</filter>
<filter id="filter3_f" x="-883" y="-540.993" width="1501.94" height="1043.62" filterUnits="userSpaceOnUse" color-interpolation-filters="sRGB">
<feFlood flood-opacity="0" result="BackgroundImageFix"/>
<feBlend mode="normal" in="SourceGraphic" in2="BackgroundImageFix" result="shape"/>
<feGaussianBlur stdDeviation="150" result="effect1_foregroundBlur"/>
</filter>
<filter id="filter4_f" x="41.9982" y="-208.3" width="2047.23" height="1467.44" filterUnits="userSpaceOnUse" color-interpolation-filters="sRGB">
<feFlood flood-opacity="0" result="BackgroundImageFix"/>
<feBlend mode="normal" in="SourceGraphic" in2="BackgroundImageFix" result="shape"/>
<feGaussianBlur stdDeviation="150" result="effect1_foregroundBlur"/>
</filter>
<filter id="filter5_f" x="-857.364" y="-564" width="2191.04" height="1327.42" filterUnits="userSpaceOnUse" color-interpolation-filters="sRGB">
<feFlood flood-opacity="0" result="BackgroundImageFix"/>
<feBlend mode="normal" in="SourceGraphic" in2="BackgroundImageFix" result="shape"/>
<feGaussianBlur stdDeviation="150" result="effect1_foregroundBlur"/>
</filter>
</defs>
</svg>
