<svg width="1440" height="1788" viewBox="0 0 1440 1788" fill="none" xmlns="http://www.w3.org/2000/svg">
<g opacity="0.6" filter="url(#filter0_f)">
<path d="M955.559 1015.45C985.836 1002.85 991.358 1003.03 1035.46 985.437C1086.15 974.483 1192.63 951.735 1213.07 948.38C1238.62 944.186 1231.57 953.248 1271.38 946.712C1311.2 940.177 1282.07 993.2 1285.93 1035.36C1289.8 1077.51 1284.78 1065.52 1274.58 1126.07C1264.38 1186.61 1270.17 1169.86 1259.55 1231.56C1248.93 1293.26 1230.32 1250.53 1154.93 1270.81C1079.53 1291.09 1110.81 1284.59 962.835 1308.88C814.864 1333.17 806.109 1331.88 672.835 1356.48C539.562 1381.08 374.079 1402.79 76.9692 1425.67C-220.141 1448.54 59.7882 1410.23 120.539 1371.37C181.291 1332.5 160.408 1346.56 253.638 1293.65C346.868 1240.73 293.898 1271.23 348.682 1248.07C403.466 1224.9 429.48 1208.64 520.019 1172.79C610.558 1136.94 605.471 1139.41 702.012 1106.67C798.553 1073.93 768.261 1082.71 836.888 1058.37C905.514 1034.02 925.283 1028.05 955.559 1015.45Z" fill="#4A78EC"/>
<path d="M-362.901 1233.22C-362.901 1233.22 -665.372 1326.49 -627.981 1363.88C-619 1372.86 -431.019 1404.63 -333.5 1388C-235.981 1371.37 -107.167 1416.96 130.5 1407.5C380.944 1397.53 712.853 1213.18 648.5 1221.5C584.148 1229.82 267.776 1112.27 238.505 1052.33C189.82 952.645 -36.407 1123.9 -36.407 1123.9L-207.482 1176.68L-362.901 1233.22Z" fill="#16407E"/>
<path d="M358.813 873.948C334.84 852.968 307.932 800.518 302.061 785.833C284.123 780.063 243.157 768.839 222.805 770.098C197.365 771.671 142.081 785.833 80.4371 794.224C18.7933 802.616 -95.6884 788.398 -95.6885 914.334C-95.6885 941.5 -89.8176 933.216 -59.9742 952.622C-30.1307 972.028 9.0082 986.19 44.7225 1013.46C80.4368 1040.74 50.5934 1109.97 34.4485 1220.11C18.3037 1330.26 50.5934 1254.21 101.474 1271.52C152.355 1288.82 188.069 1286.2 233.079 1281.48C278.089 1276.76 268.793 1266.8 312.335 1254.21C355.877 1241.62 444.455 1347.83 601.5 1298C758.545 1248.17 845.51 1076.62 791.5 1045C715.5 1000.5 511.015 1041.16 443.5 1027C375.985 1012.84 386.574 985.965 344.5 976C302.426 966.035 382.785 894.928 358.813 873.948Z" fill="#1A4990"/>
<path d="M-655.696 843.82C-655.386 844.469 -655.037 845.221 -654.65 846.069C-650.339 842.815 -639.325 831.78 -615.45 804.771C-563.491 745.991 -596.829 773.12 -562.289 749.691C-527.75 726.261 -529.252 718.04 -483.299 704.475C-437.347 690.911 -435.845 686.8 -365.565 651.039C-295.285 615.278 -334.029 631.72 -309.401 611.99C-284.773 592.259 -266.452 582.394 -227.708 568.83C-188.964 555.265 -144.213 566.775 -68.226 552.799C7.76068 538.823 54.0134 560.609 204.785 552.799C355.557 544.989 262.151 566.775 314.11 611.99C366.069 657.205 311.107 635.419 296.69 686.8C282.274 738.181 135.707 749.691 39.597 773.12C-56.5126 796.55 16.4706 782.985 -26.4783 804.771C-69.4273 826.557 -72.4308 843.82 -102.765 875.471C-133.1 907.122 -177.25 916.576 -266.452 956.036C-355.654 995.497 -372.773 997.141 -415.722 1001.25C-458.671 1005.36 -463.176 991.387 -483.299 987.276C-503.422 983.166 -562.289 953.981 -596.829 928.496C-629.49 904.397 -647.917 860.817 -654.65 846.069C-657.844 848.481 -657.358 846.62 -655.696 843.82Z" fill="#3565E0"/>
</g>
<defs>
<filter id="filter0_f" x="-1220.2" y="0.799988" width="3107.4" height="2052.15" filterUnits="userSpaceOnUse" color-interpolation-filters="sRGB">
<feFlood flood-opacity="0" result="BackgroundImageFix"/>
<feBlend mode="normal" in="SourceGraphic" in2="BackgroundImageFix" result="shape"/>
<feGaussianBlur stdDeviation="273.6" result="effect1_foregroundBlur"/>
</filter>
</defs>
</svg>
