<svg width="40" height="40" xmlns="http://www.w3.org/2000/svg" fill="none">
 <g id="Layer_1">
  <title>Layer 1</title>
  <g>
   <path fill="#7687AD" d="m17.75,12.5c-0.41421,0 -0.75,0.33579 -0.75,0.75c0,0.41421 0.33579,0.75 0.75,0.75l6,0c0.8284,0 1.5,0.67157 1.5,1.5l0,7.5c0,0.4142 0.3358,0.75 0.75,0.75c0.4142,0 0.75,-0.3358 0.75,-0.75l0,-7.5c0,-1.65685 -1.3431,-3 -3,-3l-6,0zm-2.25,3c-1.24264,0 -2.25,1.00736 -2.25,2.25l0,7.5c0,1.2426 1.00736,2.25 2.25,2.25l6,0c1.2426,0 2.25,-1.0074 2.25,-2.25l0,-7.5c0,-1.24264 -1.0074,-2.25 -2.25,-2.25l-6,0zm-0.75,2.25c0,-0.41421 0.33579,-0.75 0.75,-0.75l6,0c0.4142,0 0.75,0.33579 0.75,0.75l0,7.5c0,0.4142 -0.3358,0.75 -0.75,0.75l-6,0c-0.41421,0 -0.75,-0.3358 -0.75,-0.75l0,-7.5z" clip-rule="evenodd" fill-rule="evenodd"/>
  </g>
 </g>

</svg>