<svg width="40" height="40" xmlns="http://www.w3.org/2000/svg" fill="none">
 <title>iconHeader</title>
 <g>
  <title>Layer 1</title>
  <rect x="0.05904" y="0.5" width="39" height="39" rx="19.5" fill="#5280E4" fill-opacity="0.1" stroke="#3C80FF" id="svg_1"/>
  <path id="svg_3" d="m27,15l-1,0l0,-1c0,-0.79565 -0.3161,-1.55871 -0.8787,-2.12132c-0.5626,-0.56261 -1.3257,-0.87868 -2.1213,-0.87868l-10,0c-0.79565,0 -1.55871,0.31607 -2.12132,0.87868c-0.56261,0.56261 -0.87868,1.32567 -0.87868,2.12132l0,12c0,0.7956 0.31607,1.5587 0.87868,2.1213c0.56261,0.5626 1.32567,0.8787 2.12132,0.8787l14,0c0.7956,0 1.5587,-0.3161 2.1213,-0.8787c0.5626,-0.5626 0.8787,-1.3257 0.8787,-2.1213l0,-8c0,-0.79565 -0.3161,-1.55871 -0.8787,-2.12132c-0.5626,-0.56261 -1.3257,-0.87868 -2.1213,-0.87868zm-14,-2l10,0c0.2652,0 0.5196,0.10536 0.7071,0.29289c0.1875,0.18754 0.2929,0.44189 0.2929,0.70711l0,1l-11,0c-0.26522,0 -0.51957,-0.10536 -0.70711,-0.29289c-0.18753,-0.18754 -0.29289,-0.44189 -0.29289,-0.70711c0,-0.26522 0.10536,-0.51957 0.29289,-0.70711c0.18754,-0.18753 0.44189,-0.29289 0.70711,-0.29289zm15,10l-1,0c-0.2652,0 -0.5196,-0.1054 -0.7071,-0.2929c-0.1875,-0.1875 -0.2929,-0.4419 -0.2929,-0.7071c0,-0.2652 0.1054,-0.5196 0.2929,-0.7071c0.1875,-0.1875 0.4419,-0.2929 0.7071,-0.2929l1,0l0,2zm0,-4l-1,0c-0.7956,0 -1.5587,0.3161 -2.1213,0.8787c-0.5626,0.5626 -0.8787,1.3257 -0.8787,2.1213c0,0.7956 0.3161,1.5587 0.8787,2.1213c0.5626,0.5626 1.3257,0.8787 2.1213,0.8787l1,0l0,1c0,0.2652 -0.1054,0.5196 -0.2929,0.7071c-0.1875,0.1875 -0.4419,0.2929 -0.7071,0.2929l-14,0c-0.26522,0 -0.51957,-0.1054 -0.70711,-0.2929c-0.18753,-0.1875 -0.29289,-0.4419 -0.29289,-0.7071l0,-9.17c0.32127,0.11302 0.65943,0.17051 1,0.17l14,0c0.2652,0 0.5196,0.10536 0.7071,0.29289c0.1875,0.18754 0.2929,0.44189 0.2929,0.70711l0,1z" fill="#CEDAF5"/>
 </g>

</svg>
