<svg width="47" height="47" viewBox="0 0 47 47" fill="none" xmlns="http://www.w3.org/2000/svg">
<g clip-path="url(#clip0)">
<path d="M34.7539 15.6693C40.8675 21.7828 40.8675 31.6949 34.7539 37.8084C28.6404 43.922 18.7283 43.922 12.6148 37.8084C6.50123 31.6949 6.50123 21.7828 12.6148 15.6693L23.6844 4.59972L34.7539 15.6693Z" fill="#2146C7"/>
<mask id="mask0" mask-type="alpha" maskUnits="userSpaceOnUse" x="8" y="15" width="28" height="24">
<path d="M12.3732 26.8974C12.3732 33.1586 17.4489 38.2342 23.7101 38.2342C29.9712 38.2342 35.0469 33.1586 35.0469 26.8974C35.0469 20.6363 29.9712 15.5606 23.7101 15.5606C17.4489 15.5606 12.3732 20.6363 12.3732 26.8974Z" fill="#C4C4C4"/>
<path d="M18.2405 19.439H8.79318V26.8974H18.2405V19.439Z" fill="#C4C4C4"/>
</mask>
<g mask="url(#mask0)">
<path d="M23.4614 26.6371C20.2562 31.476 13.5168 32.3055 13.5168 32.3055C13.5168 32.3055 20.7764 43.8529 31.4171 36.3447C34.4709 34.19 37.0103 25.2109 33.6117 21.0117C27.1273 12.9999 23.3091 19.6819 23.3091 19.6819C23.3091 19.6819 27.6934 20.248 23.4614 26.6371Z" fill="white"/>
<path opacity="0.8" d="M24.5277 29.2498C20.6748 33.5907 13.4833 32.2575 13.4833 32.2575C13.4833 32.2575 17.3999 44.3577 29.5775 39.7422C33.0724 38.4176 33.184 36.5702 34.1518 32.8145C35.3949 27.3947 35.0468 26.8974 35.0468 26.8974C35.0468 26.8974 30.3882 22.6471 24.5277 29.2498Z" fill="url(#paint0_linear)"/>
<ellipse opacity="0.8" rx="0.596674" ry="0.596675" transform="matrix(-1 0 0 1 26.3679 19.169)" fill="url(#paint1_linear)"/>
</g>
</g>
<defs>
<linearGradient id="paint0_linear" x1="38.826" y1="26.5671" x2="14.4932" y2="37.7038" gradientUnits="userSpaceOnUse">
<stop stop-color="#06BAED"/>
<stop offset="1" stop-color="#056FFF"/>
</linearGradient>
<linearGradient id="paint1_linear" x1="1.36821" y1="-0.0504248" x2="-0.020583" y2="0.899748" gradientUnits="userSpaceOnUse">
<stop stop-color="#06BAED"/>
<stop offset="1" stop-color="#056FFF"/>
</linearGradient>
<clipPath id="clip0">
<rect width="38.5641" height="38.5641" fill="white" transform="translate(4.21802 4.21796)"/>
</clipPath>
</defs>
</svg>
