<svg width="24" height="24" viewBox="0 0 24 24" fill="none" xmlns="http://www.w3.org/2000/svg">
<path d="M12.0002 1.94998C6.48024 1.94998 2.00024 6.42998 2.00024 11.95C2.00024 17.47 6.48024 21.95 12.0002 21.95H17.0002V19.95H12.0002C7.66024 19.95 4.00024 16.29 4.00024 11.95C4.00024 7.60998 7.66024 3.94998 12.0002 3.94998C16.3402 3.94998 20.0002 7.60998 20.0002 11.95V13.38C20.0002 14.17 19.2902 14.95 18.5002 14.95C17.7102 14.95 17.0002 14.17 17.0002 13.38V11.95C17.0002 9.18998 14.7602 6.94998 12.0002 6.94998C9.24024 6.94998 7.00024 9.18998 7.00024 11.95C7.00024 14.71 9.24024 16.95 12.0002 16.95C13.3802 16.95 14.6402 16.39 15.5402 15.48C16.1902 16.37 17.3102 16.95 18.5002 16.95C20.4702 16.95 22.0002 15.35 22.0002 13.38V11.95C22.0002 6.42998 17.5202 1.94998 12.0002 1.94998ZM12.0002 14.95C10.3402 14.95 9.00024 13.61 9.00024 11.95C9.00024 10.29 10.3402 8.94998 12.0002 8.94998C13.6602 8.94998 15.0002 10.29 15.0002 11.95C15.0002 13.61 13.6602 14.95 12.0002 14.95Z" fill="black"/>
</svg>
