<svg width="24" height="24" viewBox="0 0 24 24" fill="none" xmlns="http://www.w3.org/2000/svg">
<path fill-rule="evenodd" clip-rule="evenodd" d="M16.5 4C15.6716 4 15 4.67157 15 5.5C15 6.32843 15.6716 7 16.5 7C17.3284 7 18 6.32843 18 5.5C18 4.67157 17.3284 4 16.5 4ZM13 5.5C13 3.567 14.567 2 16.5 2C18.433 2 20 3.567 20 5.5C20 7.433 18.433 9 16.5 9C15.5073 9 14.6111 8.58671 13.9741 7.92281L8.83113 10.9229C8.94077 11.2622 9 11.6242 9 12C9 12.3758 8.94077 12.7378 8.83113 13.0771L13.9741 16.0772C14.6111 15.4133 15.5073 15 16.5 15C18.433 15 20 16.567 20 18.5C20 20.433 18.433 22 16.5 22C14.567 22 13 20.433 13 18.5C13 18.2809 13.0201 18.0665 13.0586 17.8586L7.69251 14.7283C7.09254 15.2111 6.33001 15.5 5.5 15.5C3.567 15.5 2 13.933 2 12C2 10.067 3.567 8.5 5.5 8.5C6.33002 8.5 7.09255 8.78892 7.69252 9.27168L13.0586 6.14144C13.0201 5.93349 13 5.7191 13 5.5ZM5.5 10.5C4.67157 10.5 4 11.1716 4 12C4 12.8284 4.67157 13.5 5.5 13.5C6.32843 13.5 7 12.8284 7 12C7 11.1716 6.32843 10.5 5.5 10.5ZM15 18.5C15 17.6716 15.6716 17 16.5 17C17.3284 17 18 17.6716 18 18.5C18 19.3284 17.3284 20 16.5 20C15.6716 20 15 19.3284 15 18.5Z" fill="black"/>
</svg>
