<?xml version="1.0" standalone="no"?>
<!DOCTYPE svg PUBLIC "-//W3C//DTD SVG 1.0//EN" "http://www.w3.org/TR/2001/REC-SVG-20010904/DTD/svg10.dtd">
<svg xmlns="http://www.w3.org/2000/svg" xmlns:xlink="http://www.w3.org/1999/xlink" id="body_1" width="1073" height="51">

<g transform="matrix(1 0 0 1 0 0)">
    <path d="M0.423281 43L16.508 1.51843L23.8247 1.51843L39.9094 43L33.802 43L29.6297 31.9342L10.4006 31.9342L6.34922 43L0.423281 43zM12.2752 26.9153L27.7552 26.9153L22.9177 13.975C 22.6758 13.3703 22.4339 12.7656 22.192 12.1609C 21.9905 11.5159 21.7688 10.8709 21.5269 10.2259C 21.285 9.58094 21.0431 8.95609 20.8013 8.35141C 20.5997 7.7064 20.378 7.08156 20.1361 6.47687L20.1361 6.47687L19.8338 6.47687C 19.5919 7.08156 19.35 7.7064 19.1081 8.35141C 18.9066 8.95609 18.6848 9.56078 18.443 10.1655C 18.2414 10.7702 18.0197 11.395 17.7778 12.04C 17.5763 12.6447 17.3545 13.2494 17.1127 13.8541L17.1127 13.8541L12.2752 26.9153zM120.09 50.8609L112.653 43.6047C 112.209 43.645 111.746 43.6652 111.262 43.6652C 110.778 43.7055 110.295 43.7256 109.811 43.7256C 103.32 43.7256 98.2411 41.9519 94.5727 38.4044C 90.9445 34.8569 89.1305 29.4752 89.1305 22.2592C 89.1305 15.0433 90.9445 9.66156 94.5727 6.11406C 98.2411 2.56656 103.32 0.792812 109.811 0.792812C 116.301 0.792812 121.38 2.56656 125.049 6.11406C 128.717 9.66156 130.552 15.0433 130.552 22.2592C 130.552 27.4998 129.564 31.773 127.589 35.0786C 125.613 38.3842 122.832 40.7425 119.244 42.1534L119.244 42.1534L128.193 50.8609L120.09 50.8609zM109.811 38.8277C 112.875 38.8277 115.515 38.2834 117.732 37.195C 119.949 36.1066 121.643 34.3731 122.812 31.9947C 124.021 29.5759 124.626 26.4114 124.626 22.5011L124.626 22.5011L124.626 22.2592C 124.626 18.2683 124.021 15.0634 122.812 12.6447C 121.602 10.2259 119.889 8.47234 117.672 7.3839C 115.455 6.25515 112.834 5.69078 109.811 5.69078C 106.787 5.69078 104.167 6.25515 101.95 7.3839C 99.773 8.47234 98.0798 10.2259 96.8705 12.6447C 95.7014 15.0634 95.0967 18.2683 95.0564 22.2592L95.0564 22.2592L95.0564 22.5011C 95.0564 26.4114 95.6409 29.5759 96.81 31.9947C 98.0194 34.3731 99.7327 36.1066 101.95 37.195C 104.167 38.2834 106.787 38.8277 109.811 38.8277zM201.077 43.7256C 195.797 43.7256 191.644 42.4558 188.621 39.9161C 185.597 37.3764 184.086 33.3048 184.086 27.7014L184.086 27.7014L184.086 1.51843L189.83 1.51843L189.83 28.0037C 189.83 31.5512 190.818 34.2522 192.793 36.1066C 194.769 37.9206 197.53 38.8277 201.077 38.8277C 204.625 38.8277 207.407 37.9206 209.422 36.1066C 211.438 34.2522 212.446 31.5512 212.446 28.0037L212.446 28.0037L212.446 1.51843L218.19 1.51843L218.19 27.7014C 218.19 33.3048 216.678 37.3764 213.655 39.9161C 210.632 42.4558 206.439 43.7256 201.077 43.7256zM269.327 43L285.412 1.51843L292.729 1.51843L308.813 43L302.706 43L298.534 31.9342L279.305 31.9342L275.253 43L269.327 43zM281.179 26.9153L296.659 26.9153L291.822 13.975C 291.58 13.3703 291.338 12.7656 291.096 12.1609C 290.895 11.5159 290.673 10.8709 290.431 10.2259C 290.189 9.58094 289.947 8.95609 289.705 8.35141C 289.504 7.7064 289.282 7.08156 289.04 6.47687L289.04 6.47687L288.738 6.47687C 288.496 7.08156 288.254 7.7064 288.012 8.35141C 287.811 8.95609 287.589 9.56078 287.347 10.1655C 287.145 10.7702 286.924 11.395 286.682 12.04C 286.48 12.6447 286.259 13.2494 286.017 13.8541L286.017 13.8541L281.179 26.9153zM419.449 43L419.449 1.51843L439.645 1.51843C 443.918 1.51843 447.123 2.70765 449.26 5.08609C 451.437 7.42422 452.525 10.4477 452.525 14.1564C 452.525 16.7364 452.001 18.9939 450.953 20.9289C 449.905 22.8639 448.413 24.3756 446.478 25.4641C 444.543 26.5525 442.265 27.0967 439.645 27.0967L439.645 27.0967L425.193 27.0967L425.193 43L419.449 43zM425.193 22.0778L439.343 22.0778C 441.6 22.0778 443.394 21.3925 444.725 20.0219C 446.055 18.6109 446.72 16.6759 446.72 14.2169C 446.72 11.7981 446.095 9.92359 444.845 8.59328C 443.636 7.22265 441.802 6.53734 439.343 6.53734L439.343 6.53734L425.193 6.53734L425.193 22.0778zM505.737 43L505.737 1.51843L527.324 1.51843C 531.597 1.51843 534.802 2.62703 536.939 4.84422C 539.116 7.02109 540.204 9.84297 540.204 13.3098C 540.204 16.172 539.519 18.6311 538.148 20.687C 536.818 22.7027 534.964 24.1539 532.585 25.0408L532.585 25.0408L542.139 43L535.729 43L526.72 25.8873L511.482 25.8873L511.482 43L505.737 43zM511.482 20.8684L527.022 20.8684C 529.239 20.8684 531.013 20.2033 532.343 18.873C 533.714 17.5427 534.399 15.7084 534.399 13.3703C 534.399 11.2337 533.774 9.56078 532.525 8.35141C 531.315 7.14203 529.481 6.53734 527.022 6.53734L527.022 6.53734L511.482 6.53734L511.482 20.8684zM614.078 43.7256C 607.587 43.7256 602.508 41.9519 598.84 38.4044C 595.211 34.8569 593.397 29.4752 593.397 22.2592C 593.397 15.0433 595.211 9.66156 598.84 6.11406C 602.508 2.56656 607.587 0.792812 614.078 0.792812C 620.568 0.792812 625.647 2.56656 629.316 6.11406C 632.984 9.66156 634.818 15.0433 634.818 22.2592C 634.818 29.4752 632.984 34.8569 629.316 38.4044C 625.647 41.9519 620.568 43.7256 614.078 43.7256zM614.078 38.8277C 617.141 38.8277 619.782 38.2834 621.999 37.195C 624.216 36.1066 625.909 34.3731 627.078 31.9947C 628.288 29.5759 628.892 26.4114 628.892 22.5011L628.892 22.5011L628.892 22.2592C 628.892 18.2683 628.288 15.0634 627.078 12.6447C 625.869 10.2259 624.156 8.47234 621.939 7.3839C 619.721 6.25515 617.101 5.69078 614.078 5.69078C 611.054 5.69078 608.434 6.25515 606.217 7.3839C 604.04 8.47234 602.347 10.2259 601.137 12.6447C 599.968 15.0634 599.364 18.2683 599.323 22.2592L599.323 22.2592L599.323 22.5011C 599.323 26.4114 599.908 29.5759 601.077 31.9947C 602.286 34.3731 604 36.1066 606.217 37.195C 608.434 38.2834 611.054 38.8277 614.078 38.8277zM699.177 43L699.177 6.53734L684.906 6.53734L684.906 1.51843L719.192 1.51843L719.192 6.53734L704.921 6.53734L704.921 43L699.177 43zM788.958 43.7256C 782.467 43.7256 777.388 41.9519 773.719 38.4044C 770.091 34.8569 768.277 29.4752 768.277 22.2592C 768.277 15.0433 770.091 9.66156 773.719 6.11406C 777.388 2.56656 782.467 0.792812 788.958 0.792812C 795.448 0.792812 800.527 2.56656 804.196 6.11406C 807.864 9.66156 809.698 15.0433 809.698 22.2592C 809.698 29.4752 807.864 34.8569 804.196 38.4044C 800.527 41.9519 795.448 43.7256 788.958 43.7256zM788.958 38.8277C 792.021 38.8277 794.662 38.2834 796.879 37.195C 799.096 36.1066 800.789 34.3731 801.958 31.9947C 803.168 29.5759 803.772 26.4114 803.772 22.5011L803.772 22.5011L803.772 22.2592C 803.772 18.2683 803.168 15.0634 801.958 12.6447C 800.749 10.2259 799.036 8.47234 796.818 7.3839C 794.601 6.25515 791.981 5.69078 788.958 5.69078C 785.934 5.69078 783.314 6.25515 781.097 7.3839C 778.92 8.47234 777.227 10.2259 776.017 12.6447C 774.848 15.0634 774.243 18.2683 774.203 22.2592L774.203 22.2592L774.203 22.5011C 774.203 26.4114 774.788 29.5759 775.957 31.9947C 777.166 34.3731 778.879 36.1066 781.097 37.195C 783.314 38.2834 785.934 38.8277 788.958 38.8277zM881.494 43.7256C 877.06 43.7256 873.331 42.9395 870.307 41.3673C 867.324 39.7952 865.067 37.4167 863.535 34.232C 862.043 31.0473 861.297 27.0564 861.297 22.2592C 861.297 15.0433 862.991 9.66156 866.377 6.11406C 869.803 2.56656 874.842 0.792812 881.494 0.792812C 884.961 0.792812 888.025 1.37734 890.685 2.5464C 893.386 3.67515 895.503 5.40859 897.035 7.74672C 898.566 10.0445 899.332 12.9672 899.332 16.5147L899.332 16.5147L893.467 16.5147C 893.467 12.8866 892.378 10.1856 890.202 8.41187C 888.065 6.59781 885.162 5.69078 881.494 5.69078C 876.697 5.69078 873.129 6.96062 870.791 9.50031C 868.453 12.04 867.264 16.2527 867.223 22.1383L867.223 22.1383L867.223 22.2592C 867.223 28.1852 868.392 32.4381 870.731 35.0181C 873.069 37.5578 876.657 38.8277 881.494 38.8277C 885.203 38.8277 888.166 37.9408 890.383 36.167C 892.6 34.3933 893.709 31.7125 893.709 28.1247L893.709 28.1247L899.332 28.1247C 899.332 31.6722 898.566 34.615 897.035 36.9531C 895.503 39.2509 893.386 40.9642 890.685 42.093C 888.025 43.1814 884.961 43.7256 881.494 43.7256zM971.573 43.7256C 965.083 43.7256 960.003 41.9519 956.335 38.4044C 952.707 34.8569 950.893 29.4752 950.893 22.2592C 950.893 15.0433 952.707 9.66156 956.335 6.11406C 960.003 2.56656 965.083 0.792812 971.573 0.792812C 978.063 0.792812 983.143 2.56656 986.811 6.11406C 990.48 9.66156 992.314 15.0433 992.314 22.2592C 992.314 29.4752 990.48 34.8569 986.811 38.4044C 983.143 41.9519 978.063 43.7256 971.573 43.7256zM971.573 38.8277C 974.637 38.8277 977.277 38.2834 979.495 37.195C 981.712 36.1066 983.405 34.3731 984.574 31.9947C 985.783 29.5759 986.388 26.4114 986.388 22.5011L986.388 22.5011L986.388 22.2592C 986.388 18.2683 985.783 15.0634 984.574 12.6447C 983.365 10.2259 981.651 8.47234 979.434 7.3839C 977.217 6.25515 974.597 5.69078 971.573 5.69078C 968.55 5.69078 965.929 6.25515 963.712 7.3839C 961.535 8.47234 959.842 10.2259 958.633 12.6447C 957.464 15.0634 956.859 18.2683 956.819 22.2592L956.819 22.2592L956.819 22.5011C 956.819 26.4114 957.403 29.5759 958.572 31.9947C 959.782 34.3731 961.495 36.1066 963.712 37.195C 965.929 38.2834 968.55 38.8277 971.573 38.8277zM1045.85 43L1045.85 1.51843L1051.59 1.51843L1051.59 37.9811L1072.88 37.9811L1072.88 43L1045.85 43z" stroke="none" fill="#0000FF" fill-rule="nonzero" />
</g>
</svg>