<?xml version="1.0" standalone="no"?>
<!DOCTYPE svg PUBLIC "-//W3C//DTD SVG 1.0//EN" "http://www.w3.org/TR/2001/REC-SVG-20010904/DTD/svg10.dtd">
<svg xmlns="http://www.w3.org/2000/svg" xmlns:xlink="http://www.w3.org/1999/xlink" id="body_1" width="611" height="527">

<g transform="matrix(1 0 0 1 0 0)">
	<g>
        <path d="M526.912 305.39C 526.912 366.40698 505.33923 418.48822 462.19373 461.63373C 419.04822 504.7793 366.96698 526.35205 305.95 526.35205C 244.93304 526.35205 192.8518 504.7793 149.70628 461.63373C 106.56077 418.48822 84.98801 366.40698 84.98801 305.39C 84.98801 244.37306 106.56077 192.29181 149.70628 149.14629C 192.8518 106.00077 244.93304 84.42801 305.95 84.42801C 366.96698 84.42801 419.04822 106.00077 462.19373 149.14629C 505.33923 192.29181 526.912 244.37306 526.912 305.39C 526.912 307.9613 526.8671 310.53177 526.7774 313.10147" stroke="none" fill="#0500CF" fill-rule="nonzero" />
	</g>
</g>
</svg>