<svg width="391" height="268" viewBox="0 0 391 268" fill="none" xmlns="http://www.w3.org/2000/svg">
<path d="M96.18 265.268C68.2431 265.268 45.3348 258.723 27.4551 245.632C9.57549 232.542 0.635675 214.024 0.635675 190.078C0.635675 172.039 5.5845 157.352 15.4822 146.017C25.3798 134.683 38.4703 126.062 54.7535 120.156C71.1964 114.089 88.9962 110.098 108.153 108.183C135.93 105.628 155.167 103.234 165.863 100.999C176.559 98.6043 181.906 94.6133 181.906 89.0259V88.547C181.906 79.1283 177.357 71.7051 168.257 66.2773C159.317 60.8496 146.786 58.1357 130.662 58.1357C95.5414 58.1357 77.9811 70.5876 77.9811 95.4914H4.94594C4.94594 75.2171 10.4535 58.0559 21.4686 44.0076C32.6434 29.7996 47.7294 19.1038 66.7265 11.92C85.7236 4.57659 107.195 0.904879 131.141 0.904879C153.491 0.904879 174.164 4.33713 193.161 11.2016C212.158 17.9065 227.404 28.1234 238.898 41.8524C250.552 55.4218 256.378 72.5831 256.378 93.3362V203.248C256.378 209.793 256.538 216.099 256.857 222.165C257.336 228.232 258.294 233.659 259.731 238.449C261.327 244.036 263.323 248.666 265.717 252.337C268.112 256.009 270.107 258.563 271.704 260H198.669C197.551 258.723 195.795 256.408 193.401 253.056C191.166 249.544 189.25 245.473 187.654 240.843C186.696 238.129 185.897 235.495 185.259 232.941C175.681 243.158 163.069 251.14 147.424 256.887C131.78 262.474 114.698 265.268 96.18 265.268ZM116.055 209.714C127.549 209.714 138.405 207.638 148.622 203.488C158.839 199.177 167.14 192.472 173.525 183.373C179.911 174.274 183.104 162.38 183.104 147.694V145.538C174.004 147.933 164.346 149.928 154.129 151.525C143.912 152.962 133.775 154.239 123.718 155.356C107.435 156.953 95.2222 159.746 87.0805 163.737C79.0986 167.569 75.1076 174.114 75.1076 183.373C75.1076 200.933 88.7568 209.714 116.055 209.714Z" fill="#020202"/>
<path d="M351.65 267.184C340.634 267.184 331.295 263.352 323.633 255.69C315.97 248.027 312.139 238.688 312.139 227.673C312.139 216.817 315.97 207.558 323.633 199.896C331.295 192.233 340.634 188.402 351.65 188.402C362.505 188.402 371.764 192.233 379.427 199.896C387.09 207.558 390.921 216.817 390.921 227.673C390.921 238.688 387.09 248.027 379.427 255.69C371.764 263.352 362.505 267.184 351.65 267.184Z" fill="#405EFF"/>
</svg>
